<svg aria-hidden="true" style="position: absolute; width: 0; height: 0; overflow: hidden;" version="1.1" xmlns="http://www.w3.org/2000/svg" xmlns:xlink="http://www.w3.org/1999/xlink">
<defs>
<symbol id="icon-instagram" viewBox="0 0 32 32">
<path d="M16 0c-4.347 0-4.889 0.020-6.596 0.096-1.704 0.080-2.864 0.348-3.884 0.744-1.052 0.408-1.945 0.956-2.835 1.845s-1.439 1.781-1.845 2.835c-0.396 1.020-0.665 2.18-0.744 3.884-0.080 1.707-0.096 2.249-0.096 6.596s0.020 4.889 0.096 6.596c0.080 1.703 0.348 2.864 0.744 3.884 0.408 1.051 0.956 1.945 1.845 2.835 0.889 0.888 1.781 1.439 2.835 1.845 1.021 0.395 2.181 0.665 3.884 0.744 1.707 0.080 2.249 0.096 6.596 0.096s4.889-0.020 6.596-0.096c1.703-0.080 2.864-0.349 3.884-0.744 1.051-0.408 1.945-0.957 2.835-1.845 0.888-0.889 1.439-1.78 1.845-2.835 0.395-1.020 0.665-2.181 0.744-3.884 0.080-1.707 0.096-2.249 0.096-6.596s-0.020-4.889-0.096-6.596c-0.080-1.703-0.349-2.865-0.744-3.884-0.408-1.052-0.957-1.945-1.845-2.835-0.889-0.889-1.78-1.439-2.835-1.845-1.020-0.396-2.181-0.665-3.884-0.744-1.707-0.080-2.249-0.096-6.596-0.096zM16 2.88c4.271 0 4.78 0.021 6.467 0.095 1.56 0.073 2.407 0.332 2.969 0.553 0.749 0.289 1.28 0.636 1.843 1.195 0.559 0.56 0.905 1.092 1.195 1.841 0.219 0.563 0.48 1.409 0.551 2.969 0.076 1.688 0.093 2.195 0.093 6.467s-0.020 4.78-0.099 6.467c-0.081 1.56-0.341 2.407-0.561 2.969-0.299 0.749-0.639 1.28-1.199 1.843-0.559 0.559-1.099 0.905-1.84 1.195-0.56 0.219-1.42 0.48-2.98 0.551-1.699 0.076-2.199 0.093-6.479 0.093-4.281 0-4.781-0.020-6.479-0.099-1.561-0.081-2.421-0.341-2.981-0.561-0.759-0.299-1.28-0.639-1.839-1.199-0.561-0.559-0.92-1.099-1.2-1.84-0.22-0.56-0.479-1.42-0.56-2.98-0.060-1.68-0.081-2.199-0.081-6.459 0-4.261 0.021-4.781 0.081-6.481 0.081-1.56 0.34-2.419 0.56-2.979 0.28-0.76 0.639-1.28 1.2-1.841 0.559-0.559 1.080-0.919 1.839-1.197 0.56-0.221 1.401-0.481 2.961-0.561 1.7-0.060 2.2-0.080 6.479-0.080l0.060 0.040zM16 7.784c-4.54 0-8.216 3.68-8.216 8.216 0 4.54 3.68 8.216 8.216 8.216 4.54 0 8.216-3.68 8.216-8.216 0-4.54-3.68-8.216-8.216-8.216zM16 21.333c-2.947 0-5.333-2.387-5.333-5.333s2.387-5.333 5.333-5.333 5.333 2.387 5.333 5.333-2.387 5.333-5.333 5.333zM26.461 7.46c0 1.060-0.861 1.92-1.92 1.92-1.060 0-1.92-0.861-1.92-1.92s0.861-1.919 1.92-1.919c1.057-0.001 1.92 0.86 1.92 1.919z"></path>
</symbol>
<symbol id="icon-telegram" viewBox="0 0 32 32">
<path d="M15.925 0c-8.804 0.042-15.925 7.19-15.925 16 0 0 0 0 0 0v0c0 8.837 7.163 16 16 16v0c8.837 0 16-7.163 16-16v0c0-8.837-7.163-16-16-16v0c-0.011-0-0.024-0-0.037-0s-0.026 0-0.039 0h0.002zM22.541 9.632c0.133-0.003 0.428 0.031 0.62 0.187 0.124 0.108 0.208 0.259 0.228 0.43l0 0.003c0.021 0.124 0.048 0.408 0.027 0.629-0.24 2.531-1.283 8.669-1.813 11.503-0.224 1.2-0.665 1.601-1.093 1.64-0.928 0.087-1.633-0.613-2.533-1.203-1.408-0.924-2.204-1.499-3.571-2.4-1.58-1.040-0.556-1.613 0.344-2.547 0.236-0.245 4.329-3.969 4.409-4.307 0.009-0.043 0.019-0.2-0.075-0.283s-0.232-0.055-0.332-0.032c-0.141 0.032-2.391 1.52-6.748 4.46-0.64 0.44-1.217 0.653-1.736 0.64-0.571-0.011-1.669-0.321-2.487-0.587-1.003-0.327-1.799-0.499-1.729-1.052 0.036-0.288 0.433-0.583 1.191-0.884 4.664-2.032 7.773-3.372 9.331-4.019 4.443-1.848 5.367-2.169 5.968-2.18z"></path>
</symbol>
<symbol id="icon-viber" viewBox="0 0 32 32">
<path d="M15.2 0c-2.569 0.037-8.089 0.459-11.173 3.289-2.291 2.293-3.099 5.644-3.183 9.8-0.084 4.155-0.193 11.945 7.316 14.057h0.004l-0.005 3.221s-0.049 1.303 0.813 1.569c1.036 0.323 1.645-0.667 2.64-1.736 0.543-0.587 1.296-1.445 1.863-2.107 5.133 0.435 9.083-0.555 9.533-0.7 1.035-0.336 6.901-1.088 7.856-8.876 0.987-8.027-0.48-13.107-3.12-15.395-0.795-0.733-4.008-3.067-11.167-3.097 0 0-0.527-0.033-1.383-0.023zM15.277 2.257c0.727-0.005 1.173 0.023 1.173 0.023 6.056 0.027 8.956 1.851 9.629 2.461 2.233 1.913 3.373 6.491 2.541 13.196v0.003c-0.805 6.504-5.565 6.912-6.443 7.193-0.373 0.12-3.843 0.983-8.204 0.699 0 0-3.248 3.92-4.263 4.939-0.16 0.16-0.347 0.223-0.469 0.192-0.173-0.044-0.221-0.251-0.22-0.552l0.027-5.357c-6.349-1.76-5.98-8.389-5.907-11.86 0.072-3.472 0.724-6.317 2.661-8.231 2.613-2.364 7.299-2.691 9.48-2.707zM15.784 5.727c-0.223 0-0.404 0.18-0.405 0.403 0 0.223 0.177 0.404 0.4 0.407 2.165 0.013 3.928 0.716 5.371 2.123 1.431 1.395 2.16 3.291 2.177 5.779 0.003 0.223 0.187 0.4 0.409 0.4 0.221-0.003 0.4-0.184 0.4-0.405-0.019-2.645-0.824-4.795-2.421-6.352-1.587-1.547-3.589-2.337-5.929-2.353zM10.504 6.653c-0.253-0.043-0.533 0.007-0.821 0.156l-0.013 0.003c-0.573 0.329-1.088 0.749-1.528 1.243-0.003 0.005-0.008 0.005-0.011 0.011-0.356 0.431-0.56 0.851-0.613 1.264-0.011 0.061-0.013 0.124-0.009 0.187 0 0.181 0.029 0.36 0.087 0.533l0.017 0.013c0.18 0.64 0.631 1.701 1.607 3.472 0.56 1.024 1.204 2 1.928 2.915 0.36 0.459 0.747 0.897 1.16 1.312l0.176 0.176c0.413 0.411 0.853 0.8 1.312 1.16 0.915 0.724 1.891 1.369 2.915 1.929 1.771 0.977 2.835 1.427 3.472 1.608l0.013 0.019c0.173 0.056 0.353 0.085 0.536 0.084 0.061 0.003 0.123 0 0.184-0.011 0.413-0.048 0.836-0.253 1.264-0.613 0.005 0 0.004-0.003 0.011-0.007 0.493-0.44 0.911-0.96 1.24-1.531l0.004-0.013c0.3-0.576 0.2-1.123-0.24-1.493-0.005 0-0.931-0.773-1.383-1.107-0.48-0.34-0.973-0.656-1.484-0.947-0.68-0.38-1.376-0.141-1.664 0.232l-0.596 0.752c-0.307 0.377-0.876 0.328-0.876 0.328-4.16-1.061-5.273-5.273-5.273-5.273s-0.049-0.568 0.331-0.875l0.751-0.597c0.369-0.287 0.608-0.983 0.227-1.664-0.289-0.511-0.605-1.008-0.947-1.487-0.333-0.453-1.101-1.377-1.107-1.38-0.183-0.22-0.413-0.353-0.669-0.396zM16.491 7.827c-0.211 0.003-0.387 0.165-0.4 0.376-0.013 0.223 0.153 0.416 0.376 0.432 1.547 0.113 2.689 0.621 3.527 1.533 0.84 0.917 1.24 2.032 1.208 3.427-0.003 0.224 0.173 0.408 0.4 0.413 0.221 0.004 0.407-0.173 0.413-0.396 0.033-1.567-0.445-2.924-1.423-3.992-0.987-1.080-2.369-1.671-4.067-1.795h-0.032zM17.108 10c-0.213 0.003-0.387 0.169-0.4 0.383-0.011 0.223 0.16 0.413 0.384 0.427 0.697 0.037 1.167 0.233 1.484 0.563 0.32 0.327 0.517 0.827 0.555 1.552 0.013 0.223 0.2 0.393 0.424 0.383 0.223-0.011 0.393-0.2 0.383-0.423-0.040-0.859-0.287-1.571-0.773-2.076-0.489-0.504-1.191-0.765-2.027-0.809h-0.024z"></path>
</symbol>
<symbol id="icon-checkmark" viewBox="0 0 32 32">
<path d="M27 4l-15 15-7-7-5 5 12 12 20-20z"></path>
</symbol>
<symbol id="icon-phone" viewBox="0 0 32 32">
<path d="M22 20c-2 2-2 4-4 4s-4-2-6-4-4-4-4-6 2-2 4-4-4-8-6-8-6 6-6 6c0 4 4.109 12.109 8 16s12 8 16 8c0 0 6-4 6-6s-6-8-8-6z"></path>
</symbol>
<symbol id="icon-left_arrow" viewBox="0 0 32 32">
<path d="M14.133 16.947c-0.125-0.124-0.224-0.271-0.292-0.434s-0.103-0.337-0.103-0.513 0.035-0.35 0.103-0.513c0.068-0.162 0.167-0.31 0.292-0.434l6.12-6.107c0.125-0.124 0.224-0.271 0.292-0.434s0.103-0.337 0.103-0.513-0.035-0.35-0.103-0.513c-0.068-0.162-0.167-0.31-0.292-0.434-0.25-0.248-0.588-0.388-0.94-0.388s-0.69 0.139-0.94 0.388l-6.12 6.12c-0.749 0.75-1.17 1.767-1.17 2.827s0.421 2.077 1.17 2.827l6.12 6.12c0.248 0.246 0.583 0.385 0.933 0.387 0.175 0.001 0.349-0.033 0.512-0.099s0.31-0.164 0.435-0.288c0.125-0.124 0.224-0.271 0.292-0.434s0.103-0.337 0.103-0.513-0.035-0.35-0.103-0.513c-0.068-0.163-0.167-0.31-0.292-0.434l-6.12-6.107z"></path>
</symbol>
<symbol id="icon-right_arrow" viewBox="0 0 32 32">
<path d="M17.867 16.947c0.125-0.124 0.224-0.271 0.292-0.434s0.103-0.337 0.103-0.513c0-0.176-0.035-0.35-0.103-0.513s-0.167-0.31-0.292-0.434l-6.12-6.107c-0.125-0.124-0.224-0.271-0.292-0.434s-0.103-0.337-0.103-0.513c0-0.176 0.035-0.35 0.103-0.513s0.167-0.31 0.292-0.434c0.25-0.248 0.588-0.388 0.94-0.388s0.69 0.139 0.94 0.388l6.12 6.12c0.749 0.75 1.17 1.767 1.17 2.827s-0.421 2.077-1.17 2.827l-6.12 6.12c-0.248 0.246-0.584 0.385-0.933 0.387-0.175 0.001-0.349-0.033-0.512-0.099s-0.31-0.164-0.435-0.288c-0.125-0.124-0.224-0.271-0.292-0.434s-0.103-0.337-0.103-0.513c0-0.176 0.035-0.35 0.103-0.513s0.167-0.31 0.292-0.434l6.12-6.107z"></path>
</symbol>
<symbol id="icon-close-btn-modal" viewBox="0 0 32 32">
<path d="M32 3.224l-3.224-3.224-12.776 12.776-12.776-12.776-3.224 3.224 12.776 12.776-12.776 12.776 3.224 3.224 12.776-12.776 12.776 12.776 3.224-3.224-12.776-12.776 12.776-12.776z"></path>
</symbol>
</defs>
</svg>
